# xmcd CD database file
# Copyright (C) 1996 Ti Kan
#
# Track frame offsets:
#  150
#  20395
#  40565
#  64143
#  83893
#  99158
#  125250
#  146363
#  172615
#  180220
#  194935
#  215778
#  235048
#  258205
#  281450
#  300528
#  317653
#
# Disc length: 4389 seconds
#
# Revision: 1
# Processed by: cddbd v1.4b41PL1 Copyright (c) Steve Scherf et al.
# Submitted via: CDWizzard Release:4.12
#
DISCID=d8112311
DTITLE=Magic Sam - Magic Sam Live
DYEAR=1900
DGENRE=
TTITLE0=Every Night About This Time
TTITLE1=Don't Believe You'd Let Me Down
TTITLE2=Mole's Blues
TTITLE3=I Just Got To Know
TTITLE4=Tore Down
TTITLE5=You Were Wrong
TTITLE6=Backstroke
TTITLE7=Come On InThis House
TTITLE8=Riding High
TTITLE9=San-Ho-Say
TTITLE10=I Need You So Bad
TTITLE11=Strange Things Happening
TTITLE12=I Feel So Good
TTITLE13=All Your Love
TTITLE14=Sweet Home Chicago
TTITLE15=Looking Good
TTITLE16=Looking Good (Encore)
EXTD=
EXTT0=
EXTT1=
EXTT2=
EXTT3=
EXTT4=
EXTT5=
EXTT6=
EXTT7=
EXTT8=
EXTT9=
EXTT10=
EXTT11=
EXTT12=
EXTT13=
EXTT14=
EXTT15=
EXTT16=
PLAYORDER=
